#define files_width 9
#define files_height 9
static unsigned char files_bits[] = {
   0x3f, 0x00, 0x41, 0x00, 0x81, 0x00, 0x7d, 0x01, 0x01, 0x01, 0x3d, 0x01,
   0x01, 0x01, 0x01, 0x01, 0xff, 0x01 };
