#define files_width 9
#define files_height 9
static unsigned char files_bits[] = {
   0x00, 0x00, 0x3e, 0x00, 0x62, 0x00, 0xfa, 0x00, 0x82, 0x00, 0xba, 0x00,
   0x82, 0x00, 0xfe, 0x00, 0x00, 0x00 };
