#define graph_width 9
#define graph_height 9
static unsigned char graph_bits[] = {
   0x00, 0x00, 0x10, 0x00, 0x28, 0x00, 0x10, 0x00, 0x38, 0x00, 0x10, 0x00,
   0x10, 0x00, 0x28, 0x00, 0x00, 0x00 };
