#define graph_width 9
#define graph_height 9
static unsigned char graph_bits[] = {
   0x70, 0x00, 0x38, 0x00, 0x1c, 0x00, 0x3c, 0x00, 0x3c, 0x00, 0x00, 0x00,
   0x18, 0x00, 0x18, 0x00, 0x18, 0x00 };
