#define mail_width 9
#define mail_height 9
static unsigned char mail_bits[] = {
   0xff, 0x01, 0x83, 0x01, 0x45, 0x01, 0x39, 0x01, 0x01, 0x01, 0x01, 0x01,
   0x71, 0x01, 0x01, 0x01, 0xff, 0x01 };
