#define media_width 9
#define media_height 9
static unsigned char media_bits[] = {
   0xf0, 0x01, 0x9e, 0x00, 0x84, 0x00, 0x84, 0x00, 0x84, 0x00, 0xe4, 0x00,
   0xe7, 0x00, 0xe7, 0x00, 0x07, 0x00 };
