#define media_width 9
#define media_height 9
static unsigned char media_bits[] = {
   0x00, 0x00, 0x00, 0x00, 0xfc, 0x00, 0x84, 0x00, 0x84, 0x00, 0xc4, 0x00,
   0xc6, 0x00, 0x06, 0x00, 0x00, 0x00 };
