#define mesg_width 9
#define mesg_height 9
static unsigned char mesg_bits[] = {
   0x00, 0x00, 0x38, 0x00, 0x44, 0x00, 0x44, 0x00, 0x28, 0x00, 0x6c, 0x00,
   0x82, 0x00, 0x82, 0x00, 0x00, 0x00 };
