#define misc_width 9
#define misc_height 9
static unsigned char misc_bits[] = {
   0xff, 0x01, 0x01, 0x01, 0x6d, 0x01, 0x6d, 0x01, 0x01, 0x01, 0x39, 0x01,
   0x7d, 0x01, 0x01, 0x01, 0xff, 0x01 };
