#define misc_width 9
#define misc_height 9
static unsigned char misc_bits[] = {
   0x00, 0x00, 0xfe, 0x00, 0x82, 0x00, 0xaa, 0x00, 0x82, 0x00, 0xba, 0x00,
   0x82, 0x00, 0xfe, 0x00, 0x00, 0x00 };
