#define term_width 9
#define term_height 9
static unsigned char term_bits[] = {
   0x00, 0x00, 0x00, 0x00, 0x02, 0x00, 0x04, 0x00, 0x08, 0x00, 0x04, 0x00,
   0xf2, 0x00, 0x00, 0x00, 0x00, 0x00 };
