#define term_width 9
#define term_height 9
static unsigned char term_bits[] = {
   0xff, 0x01, 0x01, 0x01, 0x05, 0x01, 0x09, 0x01, 0x65, 0x01, 0x01, 0x01,
   0x01, 0x01, 0x01, 0x01, 0xff, 0x01 };
