#define web_width 9
#define web_height 9
static unsigned char web_bits[] = {
   0x38, 0x00, 0xfe, 0x00, 0xf6, 0x00, 0xb3, 0x01, 0xe7, 0x01, 0xf7, 0x01,
   0xf2, 0x00, 0xe6, 0x00, 0x38, 0x00 };
