#define web_width 9
#define web_height 9
static unsigned char web_bits[] = {
   0x00, 0x00, 0x38, 0x00, 0x74, 0x00, 0xb2, 0x00, 0xe6, 0x00, 0xf6, 0x00,
   0x64, 0x00, 0x38, 0x00, 0x00, 0x00 };
